<?xml version="1.0" encoding="utf-8"?>
<!-- Generator: Adobe Illustrator 17.0.0, SVG Export Plug-In . SVG Version: 6.00 Build 0)  -->
<!DOCTYPE svg PUBLIC "-//W3C//DTD SVG 1.1//EN" "http://www.w3.org/Graphics/SVG/1.1/DTD/svg11.dtd">
<svg version="1.1" id="Camada_1" xmlns="http://www.w3.org/2000/svg" xmlns:xlink="http://www.w3.org/1999/xlink" x="0px" y="0px"
	 width="1920px" height="480px" viewBox="0 0 1920 480" enable-background="new 0 0 1920 480" xml:space="preserve">
<g>
	<path fill="#3356B4" d="M144.49,468.639c-77.465,0-141.225-67.336-141.225-149.568V205.256c0-19.664,14.897-35.753,33.37-35.753
		c19.068,0,37.541,16.089,37.541,35.753v113.814c0,42.904,35.753,77.465,70.314,77.465c40.52,0,70.91-34.562,70.91-77.465V210.023
		c0-20.26,20.856-35.753,36.945-35.753c18.472,0,33.965,15.493,33.965,35.753v109.047
		C286.311,401.303,222.551,468.639,144.49,468.639z"/>
	<path fill="#3356B4" d="M377.475,117.065c-20.856,0-37.541-16.685-37.541-36.349v-2.979c0-20.856,16.685-36.945,37.541-36.945
		c19.665,0,36.349,16.089,36.349,36.945v2.979C413.824,100.38,397.139,117.065,377.475,117.065z M377.475,466.851
		c-20.856,0-37.541-16.685-37.541-36.945V199.894c0-20.26,16.685-36.349,37.541-36.349c19.665,0,36.349,16.089,36.349,36.349
		v230.012C413.824,450.166,397.139,466.851,377.475,466.851z"/>
	<path fill="#3356B4" d="M735.004,432.885c0,19.664-16.089,35.754-35.753,35.754c-20.26,0-36.349-16.09-36.349-35.754V302.386
		c0-33.965-27.411-61.376-61.376-61.376c-33.965,0-61.376,27.411-61.376,61.376v130.499c0,19.664-16.089,35.754-36.349,35.754
		c-19.664,0-36.349-16.09-36.349-35.754V52.709c0-19.664,16.685-36.349,36.349-36.349c20.26,0,36.349,16.685,36.349,36.349v131.095
		c18.472-9.534,39.329-14.897,61.376-14.897c73.89,0,133.479,59.589,133.479,133.479V432.885z"/>
	<path fill="#3356B4" d="M1027.58,337.543H844.047c8.342,33.966,38.733,60.185,75.677,60.185c19.068,0,47.075-7.746,62.568-22.644
		c14.301-13.705,36.945-13.705,50.65,0.596c14.301,13.706,13.705,36.945-0.596,50.65c-32.774,31.582-78.657,42.309-112.623,42.309
		c-82.828,0-148.971-66.739-148.971-149.568c0-81.636,66.143-149.567,148.971-149.567c8.938,0,17.281,0.596,26.219,2.383
		c40.521,7.747,75.082,32.774,96.534,68.527c9.534,16.685,20.26,38.732,19.068,58.396c0,5.363-2.384,11.322-4.768,17.281
		C1052.012,327.413,1041.882,337.543,1027.58,337.543z M854.177,277.359h126.328c-11.917-22.644-33.965-35.753-60.78-35.753
		C892.314,241.605,868.479,255.311,854.177,277.359z"/>
	<path fill="#3356B4" d="M1339.816,259.482c-13.706,14.301-35.754,15.493-50.65,1.788c-13.109-12.514-30.986-19.665-49.459-19.665
		c-40.52,0-73.89,34.562-73.89,76.87v112.623c0,19.664-16.089,35.753-35.753,35.753s-35.754-16.089-35.754-35.753V202.873
		c0-19.664,16.09-35.157,35.754-35.157c16.089,0,29.198,10.13,33.965,24.431c22.048-13.706,48.268-22.048,75.678-22.048
		c36.945,0,71.507,14.301,98.321,39.329C1352.33,222.537,1353.521,245.181,1339.816,259.482z"/>
	<path fill="#3356B4" d="M1516.785,465.659c-82.232,0-149.567-66.739-149.567-149.568c0-82.232,67.335-149.567,149.567-149.567
		s149.567,67.335,150.163,150.164C1666.353,398.92,1599.018,465.659,1516.785,465.659z M1516.785,239.818
		c-42.309,0-76.273,33.965-76.273,76.273s33.965,76.274,76.273,76.274c42.308,0,76.273-33.966,76.273-76.274
		S1559.093,239.818,1516.785,239.818z"/>
	<path fill="#3356B4" d="M1815.313,468.042c-38.137,0-76.273-15.493-95.938-33.965c-14.302-13.109-15.493-35.754-1.788-50.055
		c13.109-14.897,35.754-15.493,50.055-2.384c10.726,10.13,50.65,23.836,73.294,8.938c5.959-3.575,9.534-10.13,9.534-16.685
		c0-8.343-7.15-14.302-13.109-16.686c-5.363-2.979-14.897-2.979-25.623-2.979c-14.302,0-30.391-0.597-47.075-6.555
		c-30.986-10.131-56.013-42.309-58.396-73.294c-2.979-37.541,13.109-60.78,26.814-73.89c29.795-27.411,73.294-31.582,104.876-26.219
		c23.836,4.171,41.712,12.514,56.609,26.219c14.301,13.11,15.493,35.753,2.384,50.055c-7.747,8.342-19.068,12.514-30.391,11.322
		c-5.362-0.596-10.726-2.383-15.493-5.363c-8.342-5.959-14.301-10.13-25.027-11.918c-17.876-2.979-51.246-1.788-48.862,23.835
		c0.596,2.979,5.959,10.726,10.726,12.514c5.959,1.788,14.897,1.788,24.432,1.788c15.493,0.596,35.157,0.596,54.821,9.534
		c32.774,14.897,54.226,47.075,54.226,81.637c0,30.39-15.492,58.992-41.115,76.273
		C1860.005,463.275,1837.957,468.042,1815.313,468.042z"/>
</g>
</svg>
