<svg width="18" height="17" viewBox="0 0 18 17" fill="none" xmlns="http://www.w3.org/2000/svg">
<path d="M6.29986 7.77779C6.29986 7.86168 6.26654 7.94213 6.20722 8.00144C6.14791 8.06076 6.06746 8.09408 5.98357 8.09408C5.89969 8.09408 5.81924 8.06076 5.75992 8.00144C5.70061 7.94213 5.66728 7.86168 5.66728 7.77779C5.66728 7.69391 5.70061 7.61346 5.75992 7.55414C5.81924 7.49483 5.89969 7.4615 5.98357 7.4615C6.06746 7.4615 6.14791 7.49483 6.20722 7.55414C6.26654 7.61346 6.29986 7.69391 6.29986 7.77779ZM6.29986 7.77779H5.98357M9.46274 7.77779C9.46274 7.86168 9.42942 7.94213 9.3701 8.00144C9.31079 8.06076 9.23034 8.09408 9.14645 8.09408C9.06257 8.09408 8.98212 8.06076 8.9228 8.00144C8.86349 7.94213 8.83016 7.86168 8.83016 7.77779C8.83016 7.69391 8.86349 7.61346 8.9228 7.55414C8.98212 7.49483 9.06257 7.4615 9.14645 7.4615C9.23034 7.4615 9.31079 7.49483 9.3701 7.55414C9.42942 7.61346 9.46274 7.69391 9.46274 7.77779ZM9.46274 7.77779H9.14645M12.6256 7.77779C12.6256 7.86168 12.5923 7.94213 12.533 8.00144C12.4737 8.06076 12.3932 8.09408 12.3093 8.09408C12.2254 8.09408 12.145 8.06076 12.0857 8.00144C12.0264 7.94213 11.993 7.86168 11.993 7.77779C11.993 7.69391 12.0264 7.61346 12.0857 7.55414C12.145 7.49483 12.2254 7.4615 12.3093 7.4615C12.3932 7.4615 12.4737 7.49483 12.533 7.55414C12.5923 7.61346 12.6256 7.69391 12.6256 7.77779ZM12.6256 7.77779H12.3093M16.7374 7.77779C16.7374 11.6205 13.3383 14.7361 9.14645 14.7361C8.41872 14.737 7.69409 14.6414 6.99148 14.4519C6.00108 15.1484 4.79292 15.4649 3.58822 15.3434C3.45428 15.3305 3.32091 15.3122 3.18843 15.2886C3.60413 14.7986 3.88803 14.2108 4.01331 13.5806C4.08922 13.1952 3.90113 12.8207 3.61943 12.5466C2.33994 11.3017 1.55554 9.62407 1.55554 7.77779C1.55554 3.9351 4.95458 0.819458 9.14645 0.819458C13.3383 0.819458 16.7374 3.9351 16.7374 7.77779Z" stroke="black" stroke-width="1.5" stroke-linecap="round" stroke-linejoin="round"/>
</svg>
