<svg width="18" height="17" viewBox="0 0 18 17" fill="none" xmlns="http://www.w3.org/2000/svg">
<path d="M9.14645 16.0505C10.8291 16.0504 12.4641 15.4915 13.7946 14.4615C15.1252 13.4315 16.076 11.9888 16.4978 10.3599M9.14645 16.0505C7.46381 16.0504 5.82884 15.4915 4.49826 14.4615C3.16769 13.4315 2.21686 11.9888 1.79508 10.3599M9.14645 16.0505C11.2424 16.0505 12.9419 12.6515 12.9419 8.45962C12.9419 4.26775 11.2424 0.868714 9.14645 0.868714M9.14645 16.0505C7.05052 16.0505 5.351 12.6515 5.351 8.45962C5.351 4.26775 7.05052 0.868714 9.14645 0.868714M16.4978 10.3599C16.6539 9.75261 16.7374 9.11582 16.7374 8.45962C16.7394 7.15408 16.4032 5.87027 15.7615 4.73333M16.4978 10.3599C14.2485 11.6068 11.7182 12.2591 9.14645 12.2551C6.47951 12.2551 3.97367 11.5677 1.79508 10.3599M1.79508 10.3599C1.63546 9.73909 1.55497 9.10061 1.55555 8.45962C1.55555 7.10591 1.90979 5.83401 2.5314 4.73333M9.14645 0.868714C10.4928 0.868152 11.815 1.22579 12.9775 1.90493C14.14 2.58407 15.1008 3.56025 15.7615 4.73333M9.14645 0.868714C7.80013 0.868152 6.47789 1.22579 5.31541 1.90493C4.15293 2.58407 3.19207 3.56025 2.5314 4.73333M15.7615 4.73333C13.9251 6.32399 11.576 7.19797 9.14645 7.19447C6.61784 7.19447 4.30514 6.26669 2.5314 4.73333" stroke="black" stroke-width="1.5" stroke-linecap="round" stroke-linejoin="round"/>
</svg>
