<svg width="12" height="21" viewBox="0 0 12 21" fill="none" xmlns="http://www.w3.org/2000/svg">
<path d="M4.88133 1.55811H2.9836C2.4803 1.55811 1.9976 1.75804 1.64171 2.11394C1.28582 2.46983 1.08588 2.95252 1.08588 3.45583V17.3725C1.08588 17.8758 1.28582 18.3585 1.64171 18.7144C1.9976 19.0703 2.4803 19.2702 2.9836 19.2702H9.30936C9.81267 19.2702 10.2954 19.0703 10.6513 18.7144C11.0071 18.3585 11.2071 17.8758 11.2071 17.3725V3.45583C11.2071 2.95252 11.0071 2.46983 10.6513 2.11394C10.2954 1.75804 9.81267 1.55811 9.30936 1.55811H7.41163M4.88133 1.55811V2.82326H7.41163V1.55811M4.88133 1.55811H7.41163M4.88133 17.3725H7.41163" stroke="black" stroke-width="1.5" stroke-linecap="round" stroke-linejoin="round"/>
</svg>
