<?xml version="1.0" encoding="utf-8"?>
<!-- Generator: Adobe Illustrator 26.0.1, SVG Export Plug-In . SVG Version: 6.00 Build 0)  -->
<svg version="1.1" id="Camada_1" xmlns="http://www.w3.org/2000/svg" xmlns:xlink="http://www.w3.org/1999/xlink" x="0px" y="0px"
	 viewBox="0 0 30 30" style="enable-background:new 0 0 30 30;" xml:space="preserve">
<style type="text/css">
	.st0{fill:#FFFFFF;}
</style>
<path class="st0" d="M9,25H4V10h5V25z M6.5,8C5.1,8,4,6.9,4,5.5S5.1,3,6.5,3C7.9,3,9,4.1,9,5.5C9,6.9,7.9,8,6.5,8z M27,25h-4.8v-7.3
	c0-1.7,0-4-2.5-4c-2.5,0-2.9,1.9-2.9,3.9V25H12V10h4.6V12h0.1c0.6-1.2,2.2-2.4,4.6-2.4c4.9,0,5.8,3.1,5.8,7.2C27,16.8,27,25,27,25z"
	/>
</svg>
